<svg width="58" height="70" viewBox="0 0 58 70" fill="none" xmlns="http://www.w3.org/2000/svg">
<g filter="url(#filter0_dddd_785_171)">
<rect x="12.363" width="40" height="40" rx="10" transform="rotate(10 12.363 0)" fill="white"/>
<rect x="12.363" width="40" height="40" rx="10" transform="rotate(10 12.363 0)" fill="url(#paint0_linear_785_171)"/>
<path d="M30.1925 13.9685C28.2934 13.6336 26.3377 13.8694 24.5727 14.646C22.8076 15.4227 21.3125 16.7053 20.2764 18.3317C19.2403 19.958 18.7097 21.8551 18.7518 23.783C18.7938 25.7109 19.4066 27.5831 20.5127 29.1627C21.6188 30.7423 23.1684 31.9585 24.9657 32.6574C26.7629 33.3563 28.7271 33.5066 30.6097 33.0892C32.4924 32.6718 34.209 31.7056 35.5425 30.3126C36.876 28.9196 37.7665 27.1625 38.1013 25.2634C38.5475 22.7172 37.9654 20.0979 36.4827 17.9804C35 15.8629 32.7378 14.42 30.1925 13.9685ZM29.065 29.001L28.3264 28.8708L28.1962 29.6094C28.1616 29.8053 28.0507 29.9795 27.8877 30.0935C27.7248 30.2076 27.5232 30.2523 27.3273 30.2178C27.1314 30.1832 26.9573 30.0723 26.8432 29.9094C26.7291 29.7464 26.6844 29.5448 26.719 29.3489L26.8492 28.6103L26.1106 28.4801C25.327 28.3419 24.6304 27.8982 24.1741 27.2464C23.7177 26.5947 23.5389 25.7883 23.6771 25.0047C23.7116 24.8088 23.8226 24.6347 23.9855 24.5206C24.1485 24.4065 24.3501 24.3618 24.5459 24.3964C24.7418 24.4309 24.916 24.5419 25.0301 24.7048C25.1442 24.8677 25.1889 25.0693 25.1543 25.2652C25.0852 25.657 25.1746 26.0602 25.4028 26.386C25.631 26.7119 25.9793 26.9338 26.3711 27.0029L29.3255 27.5238C29.7173 27.5929 30.1204 27.5035 30.4463 27.2754C30.7722 27.0472 30.9941 26.6989 31.0632 26.3071C31.1322 25.9153 31.0429 25.5121 30.8147 25.1863C30.5865 24.8604 30.2382 24.6385 29.8464 24.5694L27.2613 24.1136C26.4777 23.9754 25.7812 23.5317 25.3248 22.8799C24.8684 22.2281 24.6897 21.4218 24.8278 20.6382C24.966 19.8547 25.4098 19.1581 26.0615 18.7017C26.7133 18.2453 27.5196 18.0666 28.3032 18.2047L28.6725 18.2699L28.8027 17.5313C28.8373 17.3354 28.9482 17.1612 29.1112 17.0471C29.2741 16.933 29.4757 16.8883 29.6716 16.9229C29.8675 16.9574 30.0416 17.0684 30.1557 17.2313C30.2698 17.3942 30.3145 17.5958 30.2799 17.7917L30.1497 18.5303L30.519 18.5955C31.3026 18.7336 31.9992 19.1774 32.4555 19.8291C32.9119 20.4809 33.0906 21.2873 32.9525 22.0708C32.9179 22.2667 32.807 22.4409 32.6441 22.5549C32.4811 22.669 32.2795 22.7137 32.0836 22.6792C31.8878 22.6446 31.7136 22.5337 31.5995 22.3708C31.4854 22.2078 31.4407 22.0062 31.4753 21.8103C31.5444 21.4186 31.455 21.0154 31.2268 20.6895C30.9986 20.3636 30.6503 20.1417 30.2585 20.0727L28.0427 19.682C27.6509 19.6129 27.2478 19.7023 26.9219 19.9304C26.596 20.1586 26.3741 20.5069 26.305 20.8987C26.236 21.2905 26.3253 21.6937 26.5535 22.0195C26.7817 22.3454 27.13 22.5673 27.5218 22.6364L30.1069 23.0922C30.8905 23.2304 31.587 23.6741 32.0434 24.3259C32.4998 24.9777 32.6785 25.784 32.5404 26.5676C32.4022 27.3511 31.9584 28.0477 31.3067 28.5041C30.6549 28.9604 29.8486 29.1392 29.065 29.001Z" fill="#FBFAFC"/>
</g>
<defs>
<filter id="filter0_dddd_785_171" x="-1.58289" y="-1" width="60.3383" height="72.3384" filterUnits="userSpaceOnUse" color-interpolation-filters="sRGB">
<feFlood flood-opacity="0" result="BackgroundImageFix"/>
<feColorMatrix in="SourceAlpha" type="matrix" values="0 0 0 0 0 0 0 0 0 0 0 0 0 0 0 0 0 0 127 0" result="hardAlpha"/>
<feOffset dy="1"/>
<feGaussianBlur stdDeviation="1"/>
<feColorMatrix type="matrix" values="0 0 0 0 0 0 0 0 0 0 0 0 0 0 0 0 0 0 0.1 0"/>
<feBlend mode="normal" in2="BackgroundImageFix" result="effect1_dropShadow_785_171"/>
<feColorMatrix in="SourceAlpha" type="matrix" values="0 0 0 0 0 0 0 0 0 0 0 0 0 0 0 0 0 0 127 0" result="hardAlpha"/>
<feOffset dy="4"/>
<feGaussianBlur stdDeviation="2"/>
<feColorMatrix type="matrix" values="0 0 0 0 0 0 0 0 0 0 0 0 0 0 0 0 0 0 0.09 0"/>
<feBlend mode="normal" in2="effect1_dropShadow_785_171" result="effect2_dropShadow_785_171"/>
<feColorMatrix in="SourceAlpha" type="matrix" values="0 0 0 0 0 0 0 0 0 0 0 0 0 0 0 0 0 0 127 0" result="hardAlpha"/>
<feOffset dy="10"/>
<feGaussianBlur stdDeviation="3"/>
<feColorMatrix type="matrix" values="0 0 0 0 0 0 0 0 0 0 0 0 0 0 0 0 0 0 0.05 0"/>
<feBlend mode="normal" in2="effect2_dropShadow_785_171" result="effect3_dropShadow_785_171"/>
<feColorMatrix in="SourceAlpha" type="matrix" values="0 0 0 0 0 0 0 0 0 0 0 0 0 0 0 0 0 0 127 0" result="hardAlpha"/>
<feOffset dy="18"/>
<feGaussianBlur stdDeviation="3.5"/>
<feColorMatrix type="matrix" values="0 0 0 0 0 0 0 0 0 0 0 0 0 0 0 0 0 0 0.01 0"/>
<feBlend mode="normal" in2="effect3_dropShadow_785_171" result="effect4_dropShadow_785_171"/>
<feBlend mode="normal" in="SourceGraphic" in2="effect4_dropShadow_785_171" result="shape"/>
</filter>
<linearGradient id="paint0_linear_785_171" x1="32.363" y1="0" x2="32.363" y2="40" gradientUnits="userSpaceOnUse">
<stop stop-color="#66BCFF"/>
<stop offset="1" stop-color="#0091FE"/>
</linearGradient>
</defs>
</svg>
